%TF.GenerationSoftware,KiCad,Pcbnew,9.0.0*%
%TF.CreationDate,2025-06-01T15:03:30-04:00*%
%TF.ProjectId,USB-C_LiPol_Charger,5553422d-435f-44c6-9950-6f6c5f436861,0*%
%TF.SameCoordinates,Original*%
%TF.FileFunction,Legend,Top*%
%TF.FilePolarity,Positive*%
%FSLAX46Y46*%
G04 Gerber Fmt 4.6, Leading zero omitted, Abs format (unit mm)*
G04 Created by KiCad (PCBNEW 9.0.0) date 2025-06-01 15:03:30*
%MOMM*%
%LPD*%
G01*
G04 APERTURE LIST*
%ADD10C,0.150000*%
%ADD11C,0.120000*%
G04 APERTURE END LIST*
D10*
X155166666Y-96204819D02*
X155166666Y-96919104D01*
X155166666Y-96919104D02*
X155119047Y-97061961D01*
X155119047Y-97061961D02*
X155023809Y-97157200D01*
X155023809Y-97157200D02*
X154880952Y-97204819D01*
X154880952Y-97204819D02*
X154785714Y-97204819D01*
X155595238Y-96300057D02*
X155642857Y-96252438D01*
X155642857Y-96252438D02*
X155738095Y-96204819D01*
X155738095Y-96204819D02*
X155976190Y-96204819D01*
X155976190Y-96204819D02*
X156071428Y-96252438D01*
X156071428Y-96252438D02*
X156119047Y-96300057D01*
X156119047Y-96300057D02*
X156166666Y-96395295D01*
X156166666Y-96395295D02*
X156166666Y-96490533D01*
X156166666Y-96490533D02*
X156119047Y-96633390D01*
X156119047Y-96633390D02*
X155547619Y-97204819D01*
X155547619Y-97204819D02*
X156166666Y-97204819D01*
X167083333Y-104954819D02*
X166750000Y-104478628D01*
X166511905Y-104954819D02*
X166511905Y-103954819D01*
X166511905Y-103954819D02*
X166892857Y-103954819D01*
X166892857Y-103954819D02*
X166988095Y-104002438D01*
X166988095Y-104002438D02*
X167035714Y-104050057D01*
X167035714Y-104050057D02*
X167083333Y-104145295D01*
X167083333Y-104145295D02*
X167083333Y-104288152D01*
X167083333Y-104288152D02*
X167035714Y-104383390D01*
X167035714Y-104383390D02*
X166988095Y-104431009D01*
X166988095Y-104431009D02*
X166892857Y-104478628D01*
X166892857Y-104478628D02*
X166511905Y-104478628D01*
X167988095Y-103954819D02*
X167511905Y-103954819D01*
X167511905Y-103954819D02*
X167464286Y-104431009D01*
X167464286Y-104431009D02*
X167511905Y-104383390D01*
X167511905Y-104383390D02*
X167607143Y-104335771D01*
X167607143Y-104335771D02*
X167845238Y-104335771D01*
X167845238Y-104335771D02*
X167940476Y-104383390D01*
X167940476Y-104383390D02*
X167988095Y-104431009D01*
X167988095Y-104431009D02*
X168035714Y-104526247D01*
X168035714Y-104526247D02*
X168035714Y-104764342D01*
X168035714Y-104764342D02*
X167988095Y-104859580D01*
X167988095Y-104859580D02*
X167940476Y-104907200D01*
X167940476Y-104907200D02*
X167845238Y-104954819D01*
X167845238Y-104954819D02*
X167607143Y-104954819D01*
X167607143Y-104954819D02*
X167511905Y-104907200D01*
X167511905Y-104907200D02*
X167464286Y-104859580D01*
X158285714Y-103859580D02*
X158238095Y-103907200D01*
X158238095Y-103907200D02*
X158095238Y-103954819D01*
X158095238Y-103954819D02*
X158000000Y-103954819D01*
X158000000Y-103954819D02*
X157857143Y-103907200D01*
X157857143Y-103907200D02*
X157761905Y-103811961D01*
X157761905Y-103811961D02*
X157714286Y-103716723D01*
X157714286Y-103716723D02*
X157666667Y-103526247D01*
X157666667Y-103526247D02*
X157666667Y-103383390D01*
X157666667Y-103383390D02*
X157714286Y-103192914D01*
X157714286Y-103192914D02*
X157761905Y-103097676D01*
X157761905Y-103097676D02*
X157857143Y-103002438D01*
X157857143Y-103002438D02*
X158000000Y-102954819D01*
X158000000Y-102954819D02*
X158095238Y-102954819D01*
X158095238Y-102954819D02*
X158238095Y-103002438D01*
X158238095Y-103002438D02*
X158285714Y-103050057D01*
X158714286Y-103954819D02*
X158714286Y-102954819D01*
X158714286Y-103431009D02*
X159285714Y-103431009D01*
X159285714Y-103954819D02*
X159285714Y-102954819D01*
X160285714Y-103002438D02*
X160190476Y-102954819D01*
X160190476Y-102954819D02*
X160047619Y-102954819D01*
X160047619Y-102954819D02*
X159904762Y-103002438D01*
X159904762Y-103002438D02*
X159809524Y-103097676D01*
X159809524Y-103097676D02*
X159761905Y-103192914D01*
X159761905Y-103192914D02*
X159714286Y-103383390D01*
X159714286Y-103383390D02*
X159714286Y-103526247D01*
X159714286Y-103526247D02*
X159761905Y-103716723D01*
X159761905Y-103716723D02*
X159809524Y-103811961D01*
X159809524Y-103811961D02*
X159904762Y-103907200D01*
X159904762Y-103907200D02*
X160047619Y-103954819D01*
X160047619Y-103954819D02*
X160142857Y-103954819D01*
X160142857Y-103954819D02*
X160285714Y-103907200D01*
X160285714Y-103907200D02*
X160333333Y-103859580D01*
X160333333Y-103859580D02*
X160333333Y-103526247D01*
X160333333Y-103526247D02*
X160142857Y-103526247D01*
X161238095Y-97454819D02*
X161238095Y-98264342D01*
X161238095Y-98264342D02*
X161285714Y-98359580D01*
X161285714Y-98359580D02*
X161333333Y-98407200D01*
X161333333Y-98407200D02*
X161428571Y-98454819D01*
X161428571Y-98454819D02*
X161619047Y-98454819D01*
X161619047Y-98454819D02*
X161714285Y-98407200D01*
X161714285Y-98407200D02*
X161761904Y-98359580D01*
X161761904Y-98359580D02*
X161809523Y-98264342D01*
X161809523Y-98264342D02*
X161809523Y-97454819D01*
X162238095Y-97550057D02*
X162285714Y-97502438D01*
X162285714Y-97502438D02*
X162380952Y-97454819D01*
X162380952Y-97454819D02*
X162619047Y-97454819D01*
X162619047Y-97454819D02*
X162714285Y-97502438D01*
X162714285Y-97502438D02*
X162761904Y-97550057D01*
X162761904Y-97550057D02*
X162809523Y-97645295D01*
X162809523Y-97645295D02*
X162809523Y-97740533D01*
X162809523Y-97740533D02*
X162761904Y-97883390D01*
X162761904Y-97883390D02*
X162190476Y-98454819D01*
X162190476Y-98454819D02*
X162809523Y-98454819D01*
X159083333Y-96713204D02*
X158750000Y-96237013D01*
X158511905Y-96713204D02*
X158511905Y-95713204D01*
X158511905Y-95713204D02*
X158892857Y-95713204D01*
X158892857Y-95713204D02*
X158988095Y-95760823D01*
X158988095Y-95760823D02*
X159035714Y-95808442D01*
X159035714Y-95808442D02*
X159083333Y-95903680D01*
X159083333Y-95903680D02*
X159083333Y-96046537D01*
X159083333Y-96046537D02*
X159035714Y-96141775D01*
X159035714Y-96141775D02*
X158988095Y-96189394D01*
X158988095Y-96189394D02*
X158892857Y-96237013D01*
X158892857Y-96237013D02*
X158511905Y-96237013D01*
X159940476Y-96046537D02*
X159940476Y-96713204D01*
X159702381Y-95665585D02*
X159464286Y-96379870D01*
X159464286Y-96379870D02*
X160083333Y-96379870D01*
X164583333Y-96783204D02*
X164250000Y-96307013D01*
X164011905Y-96783204D02*
X164011905Y-95783204D01*
X164011905Y-95783204D02*
X164392857Y-95783204D01*
X164392857Y-95783204D02*
X164488095Y-95830823D01*
X164488095Y-95830823D02*
X164535714Y-95878442D01*
X164535714Y-95878442D02*
X164583333Y-95973680D01*
X164583333Y-95973680D02*
X164583333Y-96116537D01*
X164583333Y-96116537D02*
X164535714Y-96211775D01*
X164535714Y-96211775D02*
X164488095Y-96259394D01*
X164488095Y-96259394D02*
X164392857Y-96307013D01*
X164392857Y-96307013D02*
X164011905Y-96307013D01*
X164916667Y-95783204D02*
X165535714Y-95783204D01*
X165535714Y-95783204D02*
X165202381Y-96164156D01*
X165202381Y-96164156D02*
X165345238Y-96164156D01*
X165345238Y-96164156D02*
X165440476Y-96211775D01*
X165440476Y-96211775D02*
X165488095Y-96259394D01*
X165488095Y-96259394D02*
X165535714Y-96354632D01*
X165535714Y-96354632D02*
X165535714Y-96592727D01*
X165535714Y-96592727D02*
X165488095Y-96687965D01*
X165488095Y-96687965D02*
X165440476Y-96735585D01*
X165440476Y-96735585D02*
X165345238Y-96783204D01*
X165345238Y-96783204D02*
X165059524Y-96783204D01*
X165059524Y-96783204D02*
X164964286Y-96735585D01*
X164964286Y-96735585D02*
X164916667Y-96687965D01*
X167333333Y-96704819D02*
X167000000Y-96228628D01*
X166761905Y-96704819D02*
X166761905Y-95704819D01*
X166761905Y-95704819D02*
X167142857Y-95704819D01*
X167142857Y-95704819D02*
X167238095Y-95752438D01*
X167238095Y-95752438D02*
X167285714Y-95800057D01*
X167285714Y-95800057D02*
X167333333Y-95895295D01*
X167333333Y-95895295D02*
X167333333Y-96038152D01*
X167333333Y-96038152D02*
X167285714Y-96133390D01*
X167285714Y-96133390D02*
X167238095Y-96181009D01*
X167238095Y-96181009D02*
X167142857Y-96228628D01*
X167142857Y-96228628D02*
X166761905Y-96228628D01*
X167714286Y-95800057D02*
X167761905Y-95752438D01*
X167761905Y-95752438D02*
X167857143Y-95704819D01*
X167857143Y-95704819D02*
X168095238Y-95704819D01*
X168095238Y-95704819D02*
X168190476Y-95752438D01*
X168190476Y-95752438D02*
X168238095Y-95800057D01*
X168238095Y-95800057D02*
X168285714Y-95895295D01*
X168285714Y-95895295D02*
X168285714Y-95990533D01*
X168285714Y-95990533D02*
X168238095Y-96133390D01*
X168238095Y-96133390D02*
X167666667Y-96704819D01*
X167666667Y-96704819D02*
X168285714Y-96704819D01*
X169333333Y-96704819D02*
X169000000Y-96228628D01*
X168761905Y-96704819D02*
X168761905Y-95704819D01*
X168761905Y-95704819D02*
X169142857Y-95704819D01*
X169142857Y-95704819D02*
X169238095Y-95752438D01*
X169238095Y-95752438D02*
X169285714Y-95800057D01*
X169285714Y-95800057D02*
X169333333Y-95895295D01*
X169333333Y-95895295D02*
X169333333Y-96038152D01*
X169333333Y-96038152D02*
X169285714Y-96133390D01*
X169285714Y-96133390D02*
X169238095Y-96181009D01*
X169238095Y-96181009D02*
X169142857Y-96228628D01*
X169142857Y-96228628D02*
X168761905Y-96228628D01*
X170285714Y-96704819D02*
X169714286Y-96704819D01*
X170000000Y-96704819D02*
X170000000Y-95704819D01*
X170000000Y-95704819D02*
X169904762Y-95847676D01*
X169904762Y-95847676D02*
X169809524Y-95942914D01*
X169809524Y-95942914D02*
X169714286Y-95990533D01*
X169454819Y-105333333D02*
X170169104Y-105333333D01*
X170169104Y-105333333D02*
X170311961Y-105380952D01*
X170311961Y-105380952D02*
X170407200Y-105476190D01*
X170407200Y-105476190D02*
X170454819Y-105619047D01*
X170454819Y-105619047D02*
X170454819Y-105714285D01*
X170454819Y-104333333D02*
X170454819Y-104904761D01*
X170454819Y-104619047D02*
X169454819Y-104619047D01*
X169454819Y-104619047D02*
X169597676Y-104714285D01*
X169597676Y-104714285D02*
X169692914Y-104809523D01*
X169692914Y-104809523D02*
X169740533Y-104904761D01*
X158880952Y-104954819D02*
X159071428Y-104954819D01*
X159071428Y-104954819D02*
X159166666Y-105002438D01*
X159166666Y-105002438D02*
X159261904Y-105097676D01*
X159261904Y-105097676D02*
X159309523Y-105288152D01*
X159309523Y-105288152D02*
X159309523Y-105621485D01*
X159309523Y-105621485D02*
X159261904Y-105811961D01*
X159261904Y-105811961D02*
X159166666Y-105907200D01*
X159166666Y-105907200D02*
X159071428Y-105954819D01*
X159071428Y-105954819D02*
X158880952Y-105954819D01*
X158880952Y-105954819D02*
X158785714Y-105907200D01*
X158785714Y-105907200D02*
X158690476Y-105811961D01*
X158690476Y-105811961D02*
X158642857Y-105621485D01*
X158642857Y-105621485D02*
X158642857Y-105288152D01*
X158642857Y-105288152D02*
X158690476Y-105097676D01*
X158690476Y-105097676D02*
X158785714Y-105002438D01*
X158785714Y-105002438D02*
X158880952Y-104954819D01*
X159738095Y-105954819D02*
X159738095Y-104954819D01*
X159738095Y-104954819D02*
X160309523Y-105954819D01*
X160309523Y-105954819D02*
X160309523Y-104954819D01*
X167359580Y-101416666D02*
X167407200Y-101464285D01*
X167407200Y-101464285D02*
X167454819Y-101607142D01*
X167454819Y-101607142D02*
X167454819Y-101702380D01*
X167454819Y-101702380D02*
X167407200Y-101845237D01*
X167407200Y-101845237D02*
X167311961Y-101940475D01*
X167311961Y-101940475D02*
X167216723Y-101988094D01*
X167216723Y-101988094D02*
X167026247Y-102035713D01*
X167026247Y-102035713D02*
X166883390Y-102035713D01*
X166883390Y-102035713D02*
X166692914Y-101988094D01*
X166692914Y-101988094D02*
X166597676Y-101940475D01*
X166597676Y-101940475D02*
X166502438Y-101845237D01*
X166502438Y-101845237D02*
X166454819Y-101702380D01*
X166454819Y-101702380D02*
X166454819Y-101607142D01*
X166454819Y-101607142D02*
X166502438Y-101464285D01*
X166502438Y-101464285D02*
X166550057Y-101416666D01*
X166550057Y-101035713D02*
X166502438Y-100988094D01*
X166502438Y-100988094D02*
X166454819Y-100892856D01*
X166454819Y-100892856D02*
X166454819Y-100654761D01*
X166454819Y-100654761D02*
X166502438Y-100559523D01*
X166502438Y-100559523D02*
X166550057Y-100511904D01*
X166550057Y-100511904D02*
X166645295Y-100464285D01*
X166645295Y-100464285D02*
X166740533Y-100464285D01*
X166740533Y-100464285D02*
X166883390Y-100511904D01*
X166883390Y-100511904D02*
X167454819Y-101083332D01*
X167454819Y-101083332D02*
X167454819Y-100464285D01*
X157859580Y-100166666D02*
X157907200Y-100214285D01*
X157907200Y-100214285D02*
X157954819Y-100357142D01*
X157954819Y-100357142D02*
X157954819Y-100452380D01*
X157954819Y-100452380D02*
X157907200Y-100595237D01*
X157907200Y-100595237D02*
X157811961Y-100690475D01*
X157811961Y-100690475D02*
X157716723Y-100738094D01*
X157716723Y-100738094D02*
X157526247Y-100785713D01*
X157526247Y-100785713D02*
X157383390Y-100785713D01*
X157383390Y-100785713D02*
X157192914Y-100738094D01*
X157192914Y-100738094D02*
X157097676Y-100690475D01*
X157097676Y-100690475D02*
X157002438Y-100595237D01*
X157002438Y-100595237D02*
X156954819Y-100452380D01*
X156954819Y-100452380D02*
X156954819Y-100357142D01*
X156954819Y-100357142D02*
X157002438Y-100214285D01*
X157002438Y-100214285D02*
X157050057Y-100166666D01*
X157954819Y-99214285D02*
X157954819Y-99785713D01*
X157954819Y-99499999D02*
X156954819Y-99499999D01*
X156954819Y-99499999D02*
X157097676Y-99595237D01*
X157097676Y-99595237D02*
X157192914Y-99690475D01*
X157192914Y-99690475D02*
X157240533Y-99785713D01*
D11*
%TO.C,J2*%
X148090000Y-104060000D02*
X155910000Y-104060000D01*
X154310000Y-104060000D02*
X154310000Y-103140000D01*
X155910000Y-104060000D02*
X155910000Y-103140000D01*
X150350000Y-103300000D02*
X150350000Y-102300000D01*
X151950000Y-103300000D02*
X150350000Y-103300000D01*
X154310000Y-103140000D02*
X154310000Y-102860000D01*
X155910000Y-103140000D02*
X154310000Y-103140000D01*
X150350000Y-102300000D02*
X151950000Y-102300000D01*
X151950000Y-102300000D02*
X151950000Y-103300000D01*
X152450000Y-101500000D02*
X148090000Y-101500000D01*
X148090000Y-100500000D02*
X152450000Y-100500000D01*
X152450000Y-100500000D02*
X152450000Y-101500000D01*
X150350000Y-99700000D02*
X148090000Y-99700000D01*
X150350000Y-99700000D02*
X151950000Y-99700000D01*
X151950000Y-99700000D02*
X151950000Y-98700000D01*
X150350000Y-99200000D02*
X148090000Y-99200000D01*
X154310000Y-99140000D02*
X155525000Y-99140000D01*
X154310000Y-99140000D02*
X154310000Y-98860000D01*
X154310000Y-98860000D02*
X155910000Y-98860000D01*
X155910000Y-98860000D02*
X155910000Y-97940000D01*
X150350000Y-98700000D02*
X150350000Y-99700000D01*
X151950000Y-98700000D02*
X150350000Y-98700000D01*
X148090000Y-97940000D02*
X148090000Y-104060000D01*
X154310000Y-97940000D02*
X154310000Y-98860000D01*
X155910000Y-97940000D02*
X148090000Y-97940000D01*
%TO.C,R5*%
X166022500Y-103921386D02*
X166022500Y-104395902D01*
X164977500Y-103921386D02*
X164977500Y-104395902D01*
%TO.C,CHG*%
X163800000Y-102765000D02*
X161515000Y-102765000D01*
X161515000Y-104235000D02*
X163800000Y-104235000D01*
X161515000Y-102765000D02*
X161515000Y-104235000D01*
%TO.C,U2*%
X162270995Y-98948385D02*
X161470995Y-98948385D01*
X162270995Y-98948385D02*
X163070995Y-98948385D01*
X162270995Y-102068385D02*
X161470995Y-102068385D01*
X162270995Y-102068385D02*
X163070995Y-102068385D01*
X160970995Y-98998385D02*
X160730995Y-98668385D01*
X161210995Y-98668385D01*
X160970995Y-98998385D01*
G36*
X160970995Y-98998385D02*
G01*
X160730995Y-98668385D01*
X161210995Y-98668385D01*
X160970995Y-98998385D01*
G37*
%TO.C,R4*%
X159012742Y-97235885D02*
X159487258Y-97235885D01*
X159012742Y-98280885D02*
X159487258Y-98280885D01*
%TO.C,R3*%
X164512742Y-97235885D02*
X164987258Y-97235885D01*
X164512742Y-98280885D02*
X164987258Y-98280885D01*
%TO.C,R2*%
X166977500Y-98737258D02*
X166977500Y-98262742D01*
X168022500Y-98737258D02*
X168022500Y-98262742D01*
%TO.C,R1*%
X168977500Y-98737258D02*
X168977500Y-98262742D01*
X170022500Y-98737258D02*
X170022500Y-98262742D01*
%TO.C,J1*%
X174750000Y-105670000D02*
X173050000Y-105670000D01*
X174750000Y-96330000D02*
X173050000Y-96330000D01*
%TO.C,ON*%
X161515000Y-104765000D02*
X161515000Y-106235000D01*
X161515000Y-106235000D02*
X163800000Y-106235000D01*
X163800000Y-104765000D02*
X161515000Y-104765000D01*
%TO.C,C2*%
X164990000Y-100640580D02*
X164990000Y-100359420D01*
X166010000Y-100640580D02*
X166010000Y-100359420D01*
%TO.C,C1*%
X158490000Y-100640580D02*
X158490000Y-100359420D01*
X159510000Y-100640580D02*
X159510000Y-100359420D01*
%TD*%
M02*
