%TF.GenerationSoftware,KiCad,Pcbnew,9.0.0*%
%TF.CreationDate,2025-06-01T15:03:30-04:00*%
%TF.ProjectId,USB-C_LiPol_Charger,5553422d-435f-44c6-9950-6f6c5f436861,0*%
%TF.SameCoordinates,Original*%
%TF.FileFunction,Copper,L2,Bot*%
%TF.FilePolarity,Positive*%
%FSLAX46Y46*%
G04 Gerber Fmt 4.6, Leading zero omitted, Abs format (unit mm)*
G04 Created by KiCad (PCBNEW 9.0.0) date 2025-06-01 15:03:30*
%MOMM*%
%LPD*%
G01*
G04 APERTURE LIST*
G04 Aperture macros list*
%AMRoundRect*
0 Rectangle with rounded corners*
0 $1 Rounding radius*
0 $2 $3 $4 $5 $6 $7 $8 $9 X,Y pos of 4 corners*
0 Add a 4 corners polygon primitive as box body*
4,1,4,$2,$3,$4,$5,$6,$7,$8,$9,$2,$3,0*
0 Add four circle primitives for the rounded corners*
1,1,$1+$1,$2,$3*
1,1,$1+$1,$4,$5*
1,1,$1+$1,$6,$7*
1,1,$1+$1,$8,$9*
0 Add four rect primitives between the rounded corners*
20,1,$1+$1,$2,$3,$4,$5,0*
20,1,$1+$1,$4,$5,$6,$7,0*
20,1,$1+$1,$6,$7,$8,$9,0*
20,1,$1+$1,$8,$9,$2,$3,0*%
G04 Aperture macros list end*
%TA.AperFunction,ComponentPad*%
%ADD10O,1.750000X1.200000*%
%TD*%
%TA.AperFunction,ComponentPad*%
%ADD11RoundRect,0.250000X-0.625000X0.350000X-0.625000X-0.350000X0.625000X-0.350000X0.625000X0.350000X0*%
%TD*%
%TA.AperFunction,HeatsinkPad*%
%ADD12O,1.700000X1.100000*%
%TD*%
%TA.AperFunction,ViaPad*%
%ADD13C,0.600000*%
%TD*%
%TA.AperFunction,Conductor*%
%ADD14C,0.200000*%
%TD*%
G04 APERTURE END LIST*
D10*
%TO.P,J2,2,Pin_2*%
%TO.N,GND*%
X154450000Y-102000000D03*
D11*
%TO.P,J2,1,Pin_1*%
%TO.N,Net-(J2-Pin_1)*%
X154450000Y-100000000D03*
%TD*%
D12*
%TO.P,J1,S1,SHIELD*%
%TO.N,Net-(J1-SHIELD)*%
X172000000Y-105320000D03*
X175800000Y-105320000D03*
X172000000Y-96680000D03*
X175800000Y-96680000D03*
%TD*%
D13*
%TO.N,GND*%
X156000000Y-102000000D03*
%TO.N,Net-(D2-K)*%
X157000000Y-98500000D03*
X161000000Y-103500000D03*
%TO.N,GND*%
X162500000Y-100500000D03*
X173000000Y-103500000D03*
X161000000Y-105500000D03*
%TD*%
D14*
%TO.N,Net-(D2-K)*%
X157000000Y-99500000D02*
X161000000Y-103500000D01*
X157000000Y-98500000D02*
X157000000Y-99500000D01*
%TD*%
%TA.AperFunction,Conductor*%
%TO.N,GND*%
G36*
X170911544Y-95770185D02*
G01*
X170957299Y-95822989D01*
X170967243Y-95892147D01*
X170938218Y-95955703D01*
X170932186Y-95962181D01*
X170884025Y-96010341D01*
X170884024Y-96010342D01*
X170769058Y-96182403D01*
X170689870Y-96373579D01*
X170689868Y-96373587D01*
X170649500Y-96576530D01*
X170649500Y-96783469D01*
X170689868Y-96986412D01*
X170689870Y-96986420D01*
X170769058Y-97177596D01*
X170884024Y-97349657D01*
X171030342Y-97495975D01*
X171030345Y-97495977D01*
X171202402Y-97610941D01*
X171393580Y-97690130D01*
X171595333Y-97730261D01*
X171596530Y-97730499D01*
X171596534Y-97730500D01*
X171596535Y-97730500D01*
X172403466Y-97730500D01*
X172403467Y-97730499D01*
X172606420Y-97690130D01*
X172797598Y-97610941D01*
X172969655Y-97495977D01*
X173115977Y-97349655D01*
X173230941Y-97177598D01*
X173310130Y-96986420D01*
X173350500Y-96783465D01*
X173350500Y-96576535D01*
X173310130Y-96373580D01*
X173230941Y-96182402D01*
X173115977Y-96010345D01*
X173115975Y-96010342D01*
X173067814Y-95962181D01*
X173034329Y-95900858D01*
X173039313Y-95831166D01*
X173081185Y-95775233D01*
X173146649Y-95750816D01*
X173155495Y-95750500D01*
X174644505Y-95750500D01*
X174711544Y-95770185D01*
X174757299Y-95822989D01*
X174767243Y-95892147D01*
X174738218Y-95955703D01*
X174732186Y-95962181D01*
X174684025Y-96010341D01*
X174684024Y-96010342D01*
X174569058Y-96182403D01*
X174489870Y-96373579D01*
X174489868Y-96373587D01*
X174449500Y-96576530D01*
X174449500Y-96783469D01*
X174489868Y-96986412D01*
X174489870Y-96986420D01*
X174569058Y-97177596D01*
X174684024Y-97349657D01*
X174830342Y-97495975D01*
X174830345Y-97495977D01*
X175002402Y-97610941D01*
X175193580Y-97690130D01*
X175395333Y-97730261D01*
X175396530Y-97730499D01*
X175396534Y-97730500D01*
X175396535Y-97730500D01*
X176203466Y-97730500D01*
X176203467Y-97730499D01*
X176406420Y-97690130D01*
X176597598Y-97610941D01*
X176769655Y-97495977D01*
X176915977Y-97349655D01*
X177030941Y-97177598D01*
X177110130Y-96986420D01*
X177150500Y-96783465D01*
X177150500Y-96576535D01*
X177110130Y-96373580D01*
X177030941Y-96182402D01*
X176915977Y-96010345D01*
X176915975Y-96010342D01*
X176867814Y-95962181D01*
X176834329Y-95900858D01*
X176839313Y-95831166D01*
X176881185Y-95775233D01*
X176946649Y-95750816D01*
X176955495Y-95750500D01*
X177725500Y-95750500D01*
X177792539Y-95770185D01*
X177838294Y-95822989D01*
X177849500Y-95874500D01*
X177849500Y-106125500D01*
X177829815Y-106192539D01*
X177777011Y-106238294D01*
X177725500Y-106249500D01*
X176955495Y-106249500D01*
X176888456Y-106229815D01*
X176842701Y-106177011D01*
X176832757Y-106107853D01*
X176861782Y-106044297D01*
X176867814Y-106037819D01*
X176915974Y-105989658D01*
X176915975Y-105989657D01*
X176915977Y-105989655D01*
X177030941Y-105817598D01*
X177110130Y-105626420D01*
X177150500Y-105423465D01*
X177150500Y-105216535D01*
X177110130Y-105013580D01*
X177030941Y-104822402D01*
X176915977Y-104650345D01*
X176915975Y-104650342D01*
X176769657Y-104504024D01*
X176683626Y-104446541D01*
X176597598Y-104389059D01*
X176406420Y-104309870D01*
X176406412Y-104309868D01*
X176203469Y-104269500D01*
X176203465Y-104269500D01*
X175396535Y-104269500D01*
X175396530Y-104269500D01*
X175193587Y-104309868D01*
X175193579Y-104309870D01*
X175002403Y-104389058D01*
X174830342Y-104504024D01*
X174684024Y-104650342D01*
X174569058Y-104822403D01*
X174489870Y-105013579D01*
X174489868Y-105013587D01*
X174449500Y-105216530D01*
X174449500Y-105423469D01*
X174489868Y-105626412D01*
X174489870Y-105626420D01*
X174569058Y-105817596D01*
X174684024Y-105989657D01*
X174732186Y-106037819D01*
X174765671Y-106099142D01*
X174760687Y-106168834D01*
X174718815Y-106224767D01*
X174653351Y-106249184D01*
X174644505Y-106249500D01*
X173155495Y-106249500D01*
X173088456Y-106229815D01*
X173042701Y-106177011D01*
X173032757Y-106107853D01*
X173061782Y-106044297D01*
X173067814Y-106037819D01*
X173115974Y-105989658D01*
X173115975Y-105989657D01*
X173115977Y-105989655D01*
X173230941Y-105817598D01*
X173310130Y-105626420D01*
X173350500Y-105423465D01*
X173350500Y-105216535D01*
X173310130Y-105013580D01*
X173230941Y-104822402D01*
X173115977Y-104650345D01*
X173115975Y-104650342D01*
X172969657Y-104504024D01*
X172883626Y-104446541D01*
X172797598Y-104389059D01*
X172606420Y-104309870D01*
X172606412Y-104309868D01*
X172403469Y-104269500D01*
X172403465Y-104269500D01*
X171596535Y-104269500D01*
X171596530Y-104269500D01*
X171393587Y-104309868D01*
X171393579Y-104309870D01*
X171202403Y-104389058D01*
X171030342Y-104504024D01*
X170884024Y-104650342D01*
X170769058Y-104822403D01*
X170689870Y-105013579D01*
X170689868Y-105013587D01*
X170649500Y-105216530D01*
X170649500Y-105423469D01*
X170689868Y-105626412D01*
X170689870Y-105626420D01*
X170769058Y-105817596D01*
X170884024Y-105989657D01*
X170932186Y-106037819D01*
X170965671Y-106099142D01*
X170960687Y-106168834D01*
X170918815Y-106224767D01*
X170853351Y-106249184D01*
X170844505Y-106249500D01*
X148474500Y-106249500D01*
X148407461Y-106229815D01*
X148361706Y-106177011D01*
X148350500Y-106125500D01*
X148350500Y-99599983D01*
X153074500Y-99599983D01*
X153074500Y-100400001D01*
X153074501Y-100400019D01*
X153085000Y-100502796D01*
X153085001Y-100502799D01*
X153140185Y-100669331D01*
X153140186Y-100669334D01*
X153232288Y-100818656D01*
X153356344Y-100942712D01*
X153420981Y-100982580D01*
X153467705Y-101034526D01*
X153478928Y-101103489D01*
X153451085Y-101167571D01*
X153443566Y-101175799D01*
X153335964Y-101283401D01*
X153234195Y-101423475D01*
X153155591Y-101577744D01*
X153102085Y-101742415D01*
X153100884Y-101749999D01*
X153100885Y-101750000D01*
X154169670Y-101750000D01*
X154149925Y-101769745D01*
X154100556Y-101855255D01*
X154075000Y-101950630D01*
X154075000Y-102049370D01*
X154100556Y-102144745D01*
X154149925Y-102230255D01*
X154169670Y-102250000D01*
X153100885Y-102250000D01*
X153102085Y-102257584D01*
X153155591Y-102422255D01*
X153234195Y-102576524D01*
X153335967Y-102716602D01*
X153458397Y-102839032D01*
X153598475Y-102940804D01*
X153752742Y-103019408D01*
X153917415Y-103072914D01*
X154088429Y-103100000D01*
X154200000Y-103100000D01*
X154200000Y-102280330D01*
X154219745Y-102300075D01*
X154305255Y-102349444D01*
X154400630Y-102375000D01*
X154499370Y-102375000D01*
X154594745Y-102349444D01*
X154680255Y-102300075D01*
X154700000Y-102280330D01*
X154700000Y-103100000D01*
X154811571Y-103100000D01*
X154982584Y-103072914D01*
X155147257Y-103019408D01*
X155301524Y-102940804D01*
X155441602Y-102839032D01*
X155564032Y-102716602D01*
X155665804Y-102576524D01*
X155744408Y-102422255D01*
X155797914Y-102257584D01*
X155799115Y-102250000D01*
X154730330Y-102250000D01*
X154750075Y-102230255D01*
X154799444Y-102144745D01*
X154825000Y-102049370D01*
X154825000Y-101950630D01*
X154799444Y-101855255D01*
X154750075Y-101769745D01*
X154730330Y-101750000D01*
X155799115Y-101750000D01*
X155799115Y-101749999D01*
X155797914Y-101742415D01*
X155744408Y-101577744D01*
X155665804Y-101423475D01*
X155564032Y-101283397D01*
X155456434Y-101175799D01*
X155422949Y-101114476D01*
X155427933Y-101044784D01*
X155469805Y-100988851D01*
X155478995Y-100982594D01*
X155543656Y-100942712D01*
X155667712Y-100818656D01*
X155759814Y-100669334D01*
X155814999Y-100502797D01*
X155825500Y-100400009D01*
X155825499Y-99599992D01*
X155823360Y-99579057D01*
X155814999Y-99497203D01*
X155814998Y-99497200D01*
X155789729Y-99420943D01*
X155759814Y-99330666D01*
X155667712Y-99181344D01*
X155543656Y-99057288D01*
X155394334Y-98965186D01*
X155227797Y-98910001D01*
X155227795Y-98910000D01*
X155125010Y-98899500D01*
X153774998Y-98899500D01*
X153774981Y-98899501D01*
X153672203Y-98910000D01*
X153672200Y-98910001D01*
X153505668Y-98965185D01*
X153505663Y-98965187D01*
X153356342Y-99057289D01*
X153232289Y-99181342D01*
X153140187Y-99330663D01*
X153140186Y-99330666D01*
X153085001Y-99497203D01*
X153085001Y-99497204D01*
X153085000Y-99497204D01*
X153074500Y-99599983D01*
X148350500Y-99599983D01*
X148350500Y-98421153D01*
X156199500Y-98421153D01*
X156199500Y-98578846D01*
X156230261Y-98733489D01*
X156230264Y-98733501D01*
X156290602Y-98879172D01*
X156290609Y-98879185D01*
X156378602Y-99010874D01*
X156399480Y-99077551D01*
X156399500Y-99079765D01*
X156399500Y-99413330D01*
X156399499Y-99413348D01*
X156399499Y-99579054D01*
X156399498Y-99579054D01*
X156405110Y-99599998D01*
X156440423Y-99731785D01*
X156447837Y-99744626D01*
X156447838Y-99744627D01*
X156447838Y-99744628D01*
X156519477Y-99868712D01*
X156519481Y-99868717D01*
X156638349Y-99987585D01*
X156638355Y-99987590D01*
X160165425Y-103514660D01*
X160198910Y-103575983D01*
X160199361Y-103578149D01*
X160230261Y-103733491D01*
X160230264Y-103733501D01*
X160290602Y-103879172D01*
X160290609Y-103879185D01*
X160378210Y-104010288D01*
X160378213Y-104010292D01*
X160489707Y-104121786D01*
X160489711Y-104121789D01*
X160620814Y-104209390D01*
X160620827Y-104209397D01*
X160765931Y-104269500D01*
X160766503Y-104269737D01*
X160921153Y-104300499D01*
X160921156Y-104300500D01*
X160921158Y-104300500D01*
X161078844Y-104300500D01*
X161078845Y-104300499D01*
X161233497Y-104269737D01*
X161379179Y-104209394D01*
X161510289Y-104121789D01*
X161621789Y-104010289D01*
X161709394Y-103879179D01*
X161769737Y-103733497D01*
X161800500Y-103578842D01*
X161800500Y-103421158D01*
X161800500Y-103421155D01*
X161800499Y-103421153D01*
X161769738Y-103266510D01*
X161769737Y-103266503D01*
X161769735Y-103266498D01*
X161709397Y-103120827D01*
X161709390Y-103120814D01*
X161621789Y-102989711D01*
X161621786Y-102989707D01*
X161510292Y-102878213D01*
X161510288Y-102878210D01*
X161379185Y-102790609D01*
X161379172Y-102790602D01*
X161233501Y-102730264D01*
X161233491Y-102730261D01*
X161078149Y-102699361D01*
X161016238Y-102666976D01*
X161014660Y-102665425D01*
X157636819Y-99287584D01*
X157622115Y-99260656D01*
X157605523Y-99234838D01*
X157604631Y-99228637D01*
X157603334Y-99226261D01*
X157600500Y-99199903D01*
X157600500Y-99079765D01*
X157620185Y-99012726D01*
X157621398Y-99010874D01*
X157651927Y-98965185D01*
X157709394Y-98879179D01*
X157769737Y-98733497D01*
X157800500Y-98578842D01*
X157800500Y-98421158D01*
X157800500Y-98421155D01*
X157800499Y-98421153D01*
X157769738Y-98266510D01*
X157769737Y-98266503D01*
X157769735Y-98266498D01*
X157709397Y-98120827D01*
X157709390Y-98120814D01*
X157621789Y-97989711D01*
X157621786Y-97989707D01*
X157510292Y-97878213D01*
X157510288Y-97878210D01*
X157379185Y-97790609D01*
X157379172Y-97790602D01*
X157233501Y-97730264D01*
X157233489Y-97730261D01*
X157078845Y-97699500D01*
X157078842Y-97699500D01*
X156921158Y-97699500D01*
X156921155Y-97699500D01*
X156766510Y-97730261D01*
X156766498Y-97730264D01*
X156620827Y-97790602D01*
X156620814Y-97790609D01*
X156489711Y-97878210D01*
X156489707Y-97878213D01*
X156378213Y-97989707D01*
X156378210Y-97989711D01*
X156290609Y-98120814D01*
X156290602Y-98120827D01*
X156230264Y-98266498D01*
X156230261Y-98266510D01*
X156199500Y-98421153D01*
X148350500Y-98421153D01*
X148350500Y-95874500D01*
X148370185Y-95807461D01*
X148422989Y-95761706D01*
X148474500Y-95750500D01*
X170844505Y-95750500D01*
X170911544Y-95770185D01*
G37*
%TD.AperFunction*%
%TD*%
M02*
