%TF.GenerationSoftware,KiCad,Pcbnew,9.0.0*%
%TF.CreationDate,2025-06-01T15:03:30-04:00*%
%TF.ProjectId,USB-C_LiPol_Charger,5553422d-435f-44c6-9950-6f6c5f436861,0*%
%TF.SameCoordinates,Original*%
%TF.FileFunction,Copper,L1,Top*%
%TF.FilePolarity,Positive*%
%FSLAX46Y46*%
G04 Gerber Fmt 4.6, Leading zero omitted, Abs format (unit mm)*
G04 Created by KiCad (PCBNEW 9.0.0) date 2025-06-01 15:03:30*
%MOMM*%
%LPD*%
G01*
G04 APERTURE LIST*
G04 Aperture macros list*
%AMRoundRect*
0 Rectangle with rounded corners*
0 $1 Rounding radius*
0 $2 $3 $4 $5 $6 $7 $8 $9 X,Y pos of 4 corners*
0 Add a 4 corners polygon primitive as box body*
4,1,4,$2,$3,$4,$5,$6,$7,$8,$9,$2,$3,0*
0 Add four circle primitives for the rounded corners*
1,1,$1+$1,$2,$3*
1,1,$1+$1,$4,$5*
1,1,$1+$1,$6,$7*
1,1,$1+$1,$8,$9*
0 Add four rect primitives between the rounded corners*
20,1,$1+$1,$2,$3,$4,$5,0*
20,1,$1+$1,$4,$5,$6,$7,0*
20,1,$1+$1,$6,$7,$8,$9,0*
20,1,$1+$1,$8,$9,$2,$3,0*%
G04 Aperture macros list end*
%TA.AperFunction,ComponentPad*%
%ADD10O,1.750000X1.200000*%
%TD*%
%TA.AperFunction,ComponentPad*%
%ADD11RoundRect,0.250000X-0.625000X0.350000X-0.625000X-0.350000X0.625000X-0.350000X0.625000X0.350000X0*%
%TD*%
%TA.AperFunction,SMDPad,CuDef*%
%ADD12RoundRect,0.200000X-0.275000X0.200000X-0.275000X-0.200000X0.275000X-0.200000X0.275000X0.200000X0*%
%TD*%
%TA.AperFunction,SMDPad,CuDef*%
%ADD13RoundRect,0.218750X-0.218750X-0.256250X0.218750X-0.256250X0.218750X0.256250X-0.218750X0.256250X0*%
%TD*%
%TA.AperFunction,SMDPad,CuDef*%
%ADD14RoundRect,0.150000X-0.512500X-0.150000X0.512500X-0.150000X0.512500X0.150000X-0.512500X0.150000X0*%
%TD*%
%TA.AperFunction,SMDPad,CuDef*%
%ADD15RoundRect,0.200000X-0.200000X-0.275000X0.200000X-0.275000X0.200000X0.275000X-0.200000X0.275000X0*%
%TD*%
%TA.AperFunction,SMDPad,CuDef*%
%ADD16RoundRect,0.200000X0.275000X-0.200000X0.275000X0.200000X-0.275000X0.200000X-0.275000X-0.200000X0*%
%TD*%
%TA.AperFunction,SMDPad,CuDef*%
%ADD17RoundRect,0.175000X0.425000X-0.175000X0.425000X0.175000X-0.425000X0.175000X-0.425000X-0.175000X0*%
%TD*%
%TA.AperFunction,SMDPad,CuDef*%
%ADD18RoundRect,0.190000X-0.410000X0.190000X-0.410000X-0.190000X0.410000X-0.190000X0.410000X0.190000X0*%
%TD*%
%TA.AperFunction,SMDPad,CuDef*%
%ADD19RoundRect,0.200000X-0.400000X0.200000X-0.400000X-0.200000X0.400000X-0.200000X0.400000X0.200000X0*%
%TD*%
%TA.AperFunction,SMDPad,CuDef*%
%ADD20RoundRect,0.175000X-0.425000X0.175000X-0.425000X-0.175000X0.425000X-0.175000X0.425000X0.175000X0*%
%TD*%
%TA.AperFunction,SMDPad,CuDef*%
%ADD21RoundRect,0.190000X0.410000X-0.190000X0.410000X0.190000X-0.410000X0.190000X-0.410000X-0.190000X0*%
%TD*%
%TA.AperFunction,SMDPad,CuDef*%
%ADD22RoundRect,0.200000X0.400000X-0.200000X0.400000X0.200000X-0.400000X0.200000X-0.400000X-0.200000X0*%
%TD*%
%TA.AperFunction,HeatsinkPad*%
%ADD23O,1.700000X1.100000*%
%TD*%
%TA.AperFunction,SMDPad,CuDef*%
%ADD24RoundRect,0.225000X0.250000X-0.225000X0.250000X0.225000X-0.250000X0.225000X-0.250000X-0.225000X0*%
%TD*%
%TA.AperFunction,ViaPad*%
%ADD25C,0.600000*%
%TD*%
%TA.AperFunction,Conductor*%
%ADD26C,0.200000*%
%TD*%
G04 APERTURE END LIST*
D10*
%TO.P,J2,2,Pin_2*%
%TO.N,GND*%
X154450000Y-102000000D03*
D11*
%TO.P,J2,1,Pin_1*%
%TO.N,Net-(J2-Pin_1)*%
X154450000Y-100000000D03*
%TD*%
D12*
%TO.P,R5,1*%
%TO.N,Net-(D2-A)*%
X165500000Y-103333644D03*
%TO.P,R5,2*%
%TO.N,Net-(D3-A)*%
X165500000Y-104983644D03*
%TD*%
D13*
%TO.P,CHG,2,A*%
%TO.N,Net-(D2-A)*%
X163787500Y-103500000D03*
%TO.P,CHG,1,K*%
%TO.N,Net-(D2-K)*%
X162212500Y-103500000D03*
%TD*%
D14*
%TO.P,U2,1,STAT*%
%TO.N,Net-(U2-STAT)*%
X161133495Y-99558385D03*
%TO.P,U2,2,V_{SS}*%
%TO.N,GND*%
X161133495Y-100508385D03*
%TO.P,U2,3,V_{BAT}*%
%TO.N,Net-(J2-Pin_1)*%
X161133495Y-101458385D03*
%TO.P,U2,4,V_{DD}*%
%TO.N,Net-(D2-A)*%
X163408495Y-101458385D03*
%TO.P,U2,5,PROG*%
%TO.N,Net-(U2-PROG)*%
X163408495Y-99558385D03*
%TD*%
D15*
%TO.P,R4,1*%
%TO.N,Net-(D2-K)*%
X158425000Y-97758385D03*
%TO.P,R4,2*%
%TO.N,Net-(U2-STAT)*%
X160075000Y-97758385D03*
%TD*%
%TO.P,R3,1*%
%TO.N,Net-(U2-PROG)*%
X163925000Y-97758385D03*
%TO.P,R3,2*%
%TO.N,GND*%
X165575000Y-97758385D03*
%TD*%
D16*
%TO.P,R2,1*%
%TO.N,Net-(J1-CC1)*%
X167500000Y-99325000D03*
%TO.P,R2,2*%
%TO.N,GND*%
X167500000Y-97675000D03*
%TD*%
%TO.P,R1,1*%
%TO.N,Net-(J1-CC2)*%
X169500000Y-99325000D03*
%TO.P,R1,2*%
%TO.N,GND*%
X169500000Y-97675000D03*
%TD*%
D17*
%TO.P,J1,A5,CC1*%
%TO.N,Net-(J1-CC1)*%
X171920000Y-101500000D03*
D18*
%TO.P,J1,A9,VBUS*%
%TO.N,Net-(D2-A)*%
X171920000Y-99480000D03*
D19*
%TO.P,J1,A12,GND*%
%TO.N,GND*%
X171920000Y-98250000D03*
D20*
%TO.P,J1,B5,CC2*%
%TO.N,Net-(J1-CC2)*%
X171920000Y-100500000D03*
D21*
%TO.P,J1,B9,VBUS*%
%TO.N,Net-(D2-A)*%
X171920000Y-102520000D03*
D22*
%TO.P,J1,B12,GND*%
%TO.N,GND*%
X171920000Y-103750000D03*
D23*
%TO.P,J1,S1,SHIELD*%
%TO.N,Net-(J1-SHIELD)*%
X172000000Y-105320000D03*
X175800000Y-105320000D03*
X172000000Y-96680000D03*
X175800000Y-96680000D03*
%TD*%
D13*
%TO.P,ON,1,K*%
%TO.N,GND*%
X162212500Y-105500000D03*
%TO.P,ON,2,A*%
%TO.N,Net-(D3-A)*%
X163787500Y-105500000D03*
%TD*%
D24*
%TO.P,C2,1*%
%TO.N,Net-(D2-A)*%
X165500000Y-101275000D03*
%TO.P,C2,2*%
%TO.N,GND*%
X165500000Y-99725000D03*
%TD*%
%TO.P,C1,1*%
%TO.N,Net-(J2-Pin_1)*%
X159000000Y-101275000D03*
%TO.P,C1,2*%
%TO.N,GND*%
X159000000Y-99725000D03*
%TD*%
D25*
%TO.N,GND*%
X156000000Y-102000000D03*
%TO.N,Net-(D2-K)*%
X157000000Y-98500000D03*
X161000000Y-103500000D03*
%TO.N,GND*%
X162500000Y-100500000D03*
X173000000Y-103500000D03*
X161000000Y-105500000D03*
%TD*%
D26*
%TO.N,Net-(J1-SHIELD)*%
X175800000Y-105320000D02*
X172000000Y-105320000D01*
X175800000Y-96680000D02*
X175800000Y-105320000D01*
X172000000Y-96680000D02*
X175800000Y-96680000D01*
%TO.N,Net-(D2-K)*%
X157000000Y-98500000D02*
X157500000Y-98000000D01*
X157500000Y-98000000D02*
X158183385Y-98000000D01*
X158183385Y-98000000D02*
X158425000Y-97758385D01*
%TO.N,Net-(J2-Pin_1)*%
X156275000Y-101275000D02*
X159000000Y-101275000D01*
X156000000Y-101000000D02*
X156275000Y-101275000D01*
X155450000Y-101000000D02*
X156000000Y-101000000D01*
X154450000Y-100000000D02*
X155450000Y-101000000D01*
%TO.N,GND*%
X154450000Y-102000000D02*
X156000000Y-102000000D01*
%TO.N,Net-(J2-Pin_1)*%
X159958385Y-101458385D02*
X161133495Y-101458385D01*
X159775000Y-101275000D02*
X159958385Y-101458385D01*
X159000000Y-101275000D02*
X159775000Y-101275000D01*
%TO.N,Net-(U2-PROG)*%
X163925000Y-99041880D02*
X163925000Y-97758385D01*
X163408495Y-99558385D02*
X163925000Y-99041880D01*
%TO.N,GND*%
X164725000Y-100500000D02*
X162500000Y-100500000D01*
X165500000Y-99725000D02*
X164725000Y-100500000D01*
%TO.N,Net-(D2-K)*%
X162212500Y-103500000D02*
X161000000Y-103500000D01*
%TO.N,Net-(U2-STAT)*%
X160075000Y-98499890D02*
X161133495Y-99558385D01*
X160075000Y-97758385D02*
X160075000Y-98499890D01*
%TO.N,GND*%
X162491615Y-100508385D02*
X162500000Y-100500000D01*
X161133495Y-100508385D02*
X162491615Y-100508385D01*
X159783385Y-100508385D02*
X161133495Y-100508385D01*
X159000000Y-99725000D02*
X159783385Y-100508385D01*
X172750000Y-103750000D02*
X173000000Y-103500000D01*
X171920000Y-103750000D02*
X172750000Y-103750000D01*
%TO.N,Net-(D3-A)*%
X164303856Y-104983644D02*
X163787500Y-105500000D01*
X165500000Y-104983644D02*
X164303856Y-104983644D01*
%TO.N,Net-(D2-A)*%
X165500000Y-103333644D02*
X163953856Y-103333644D01*
X163953856Y-103333644D02*
X163787500Y-103500000D01*
X163591880Y-101275000D02*
X163408495Y-101458385D01*
X165500000Y-101275000D02*
X163591880Y-101275000D01*
X165500000Y-103333644D02*
X165500000Y-101275000D01*
X170666356Y-103333644D02*
X165500000Y-103333644D01*
X171480000Y-102520000D02*
X170666356Y-103333644D01*
X171920000Y-102520000D02*
X171480000Y-102520000D01*
X172480000Y-102520000D02*
X171920000Y-102520000D01*
X173000000Y-99960000D02*
X173000000Y-102000000D01*
X172520000Y-99480000D02*
X173000000Y-99960000D01*
X171920000Y-99480000D02*
X172520000Y-99480000D01*
X173000000Y-102000000D02*
X172480000Y-102520000D01*
%TO.N,GND*%
X165575000Y-99650000D02*
X165500000Y-99725000D01*
X165575000Y-97758385D02*
X165575000Y-99650000D01*
X165658385Y-97675000D02*
X165575000Y-97758385D01*
X167500000Y-97675000D02*
X165658385Y-97675000D01*
X169500000Y-97675000D02*
X167500000Y-97675000D01*
X170075000Y-98250000D02*
X169500000Y-97675000D01*
X171920000Y-98250000D02*
X170075000Y-98250000D01*
%TO.N,Net-(J1-CC2)*%
X169500000Y-99325000D02*
X170675000Y-100500000D01*
X170675000Y-100500000D02*
X171920000Y-100500000D01*
%TO.N,Net-(J1-CC1)*%
X169675000Y-101500000D02*
X167500000Y-99325000D01*
X171920000Y-101500000D02*
X169675000Y-101500000D01*
%TO.N,GND*%
X162212500Y-105500000D02*
X161000000Y-105500000D01*
%TD*%
M02*
